<?xml version="1.0" encoding="UTF-8" standalone="no"?>
<svg width="359px" height="359px" viewBox="0 0 359 359" version="1.1" xmlns="http://www.w3.org/2000/svg" xmlns:xlink="http://www.w3.org/1999/xlink" xmlns:sketch="http://www.bohemiancoding.com/sketch/ns">
    <!-- Generator: Sketch Beta 3.2.2 (9983) - http://www.bohemiancoding.com/sketch -->
    <title>Group 2</title>
    <desc>Created with Sketch Beta.</desc>
    <defs></defs>
    <g id="logo" stroke="none" stroke-width="1" fill="none" fill-rule="evenodd" sketch:type="MSPage">
        <g id="Group-2" sketch:type="MSLayerGroup" transform="translate(16.000000, 16.000000)">
            <g id="Oval-1-+-Path-1-+-S" sketch:type="MSShapeGroup">
                <circle id="Oval-1" stroke="#FFFFFF" stroke-width="31" cx="163.5" cy="163.5" r="163.5"></circle>
                <path d="M246.267792,219.859651 C243.192398,227.124712 238.356525,234.255953 231.760029,241.253588 C225.163532,248.251223 216.739754,253.933931 206.488441,258.301881 C196.237129,262.669832 184.2923,264.853774 170.653598,264.853774 C160.313143,264.853774 150.908819,263.873229 142.440344,261.912108 C133.971868,259.950987 126.283499,256.897925 119.375006,252.752829 C112.466513,248.607733 106.115251,243.147877 100.321031,236.373096 C95.1508041,230.222309 90.7383488,223.336204 87.0835331,215.714576 C83.4287173,208.092948 80.6876466,199.958877 78.8602387,191.312117 C77.0328309,182.665358 76.1191406,173.483886 76.1191406,163.767424 C76.1191406,147.989317 78.4145088,133.860546 83.0053139,121.380688 C87.5961191,108.900829 94.1702318,98.2262527 102.727849,89.3566388 C111.285467,80.487025 121.313774,73.7346313 132.813072,69.0992552 C144.312371,64.4638791 156.569191,62.1462259 169.583901,62.1462259 C185.45115,62.1462259 199.579921,65.310714 211.970637,71.6397852 C224.361354,77.9688564 233.854819,85.7909362 240.451315,95.1062593 C247.047812,104.421582 250.346011,113.224208 250.346011,121.5144 C250.346011,126.060634 250.880859,132.252931 245.532375,133.548489 C240.183891,134.844047 238.445664,124.637696 233.899429,124.637696 C228.818344,124.637696 228.361328,135.153031 222.467037,135.153034 C216.572747,135.153037 217.096284,128.601171 213.976319,122.717809 C208.806092,113.001347 202.722252,105.736396 195.724617,100.922736 C188.726982,96.109076 180.102637,93.7022822 169.851325,93.7022822 C153.538367,93.7022822 140.546137,99.8975477 130.874247,112.288265 C121.202356,124.678981 116.366484,142.284232 116.366484,165.104545 C116.366484,180.347801 118.505856,193.028039 122.784665,203.145639 C127.063473,213.263238 133.125028,220.817897 140.969511,225.80984 C148.813993,230.801784 157.995466,233.297718 168.514204,233.297718 C179.92436,233.297718 189.573821,230.467507 197.462874,224.806999 C205.351928,219.146492 211.302057,210.834139 215.31344,199.869692 C217.007135,194.699465 216.762695,188.513673 221.597909,187.233898 C226.433122,185.954124 228.372635,193.198243 233.899429,193.198243 C238.623947,193.198243 240.71874,185.664984 245.799799,187.300754 C250.880859,188.936524 250.880859,194.699466 250.880859,199.602268 C250.880859,205.842197 249.343186,212.594591 246.267792,219.859651 Z" id="Chat" fill="#FFFFFF"></path>
                <path d="M216,172 C223.731986,172 230,165.731986 230,158 C230,150.268014 223.731986,144 216,144 C208.268014,144 202,150.268014 202,158 C202,165.731986 208.268014,172 216,172 Z" id="Oval-8" fill="#FFFFFF"></path>
                <path d="M261,168 C266.522847,168 271,163.522847 271,158 C271,152.477153 266.522847,148 261,148 C255.477153,148 251,152.477153 251,158 C251,163.522847 255.477153,168 261,168 Z" id="Oval-9" fill="#FFFFFF"></path>
            </g>
            <path d="M56,279.554688 L20,323.640625 L86,317.640625 L56,279.554688 Z" id="Path-1" fill="#FFFFFF" sketch:type="MSShapeGroup"></path>
        </g>
    </g>
</svg>