<?xml version="1.0" encoding="UTF-8" standalone="no"?>
<svg width="17px" height="16px" viewBox="0 0 17 16" version="1.1" xmlns="http://www.w3.org/2000/svg" xmlns:xlink="http://www.w3.org/1999/xlink" xmlns:sketch="http://www.bohemiancoding.com/sketch/ns">
    <!-- Generator: Sketch Beta 3.2.2 (9983) - http://www.bohemiancoding.com/sketch -->
    <title>设置</title>
    <desc>Created with Sketch Beta.</desc>
    <defs></defs>
    <g id="Page-1" stroke="none" stroke-width="1" fill="none" fill-rule="evenodd" sketch:type="MSPage">
        <g id="页面聊天" sketch:type="MSLayerGroup" transform="translate(-366.000000, -17.000000)">
            <g id="设置" transform="translate(366.000000, 17.000000)" sketch:type="MSShapeGroup">
                <ellipse id="Oval-7" stroke="#FFFFFF" stroke-width="2" cx="8.5" cy="8" rx="4.78125" ry="4.8"></ellipse>
                <ellipse id="Oval-10" fill="#FFFFFF" cx="8.5" cy="8" rx="1.59375" ry="1.6"></ellipse>
                <path d="M6.90625,0.994958878 C6.90625,0.445458263 7.34945822,0 7.91479492,0 L9.08520508,0 C9.64220906,0 10.09375,0.444946289 10.09375,0.994958878 L10.09375,2.20504112 C10.09375,2.75454174 9.65054178,3.2 9.08520508,3.2 L7.91479492,3.2 C7.35779094,3.2 6.90625,2.75505371 6.90625,2.20504112 L6.90625,0.994958878 Z M12.9514016,2.39032418 C13.3784438,2.04451223 14.0035498,2.10861374 14.3593278,2.54796288 L15.0958907,3.45754241 C15.4464247,3.8904158 15.3848004,4.52134279 14.9573603,4.86747693 L14.0169498,5.62900636 C13.5899076,5.9748183 12.9648016,5.91071679 12.6090237,5.47136766 L11.8724607,4.56178813 C11.5219267,4.12891474 11.583551,3.49798775 12.0109911,3.15185361 L12.9514016,2.39032418 Z M15.6632151,8.00733632 C16.1986321,8.13094707 16.5329731,8.66300219 16.4058,9.21384935 L16.142515,10.354262 C16.0172164,10.89699 15.4820995,11.2368668 14.9461837,11.1131409 L13.7671157,10.8409316 C13.2316988,10.7173209 12.8973577,10.1852658 13.0245308,9.6344186 L13.2878158,8.49400598 C13.4131145,7.95127798 13.9482314,7.61140114 14.4841472,7.73512705 L15.6632151,8.00733632 Z M12.9636944,13.6113541 C13.2045796,14.105242 13.0015028,14.6999069 12.4933815,14.9477342 L11.4414238,15.4608082 C10.940792,15.7049827 10.339898,15.5030102 10.0987884,15.0086621 L9.56832325,13.9210474 C9.32743804,13.4271595 9.5305149,12.8324946 10.0386362,12.5846673 L11.0905938,12.0715933 C11.5912257,11.8274188 12.1921196,12.0293913 12.4332293,12.5237394 L12.9636944,13.6113541 Z M6.9012116,15.0086621 C6.66032639,15.50255 6.06669743,15.7086355 5.55857617,15.4608082 L4.50661849,14.9477342 C4.00598663,14.7035597 3.79519593,14.1057021 4.03630558,13.6113541 L4.56677072,12.5237394 C4.80765594,12.0298515 5.40128489,11.823766 5.90940616,12.0715933 L6.96136384,12.5846673 C7.4619957,12.8288418 7.67278639,13.4266994 7.43167675,13.9210474 L6.9012116,15.0086621 Z M2.05381635,11.1131409 C1.5183994,11.2367516 0.984658043,10.9051091 0.857484956,10.354262 L0.594199957,9.21384935 C0.468901324,8.67112135 0.800869058,8.13106224 1.33678486,8.00733632 L2.51585277,7.73512705 C3.05126972,7.61151631 3.58501108,7.94315882 3.71218416,8.49400598 L3.97546916,9.6344186 C4.1007678,10.1771466 3.76880006,10.7172057 3.23288426,10.8409316 L2.05381635,11.1131409 Z M2.04263966,4.86747693 C1.61559748,4.52166499 1.54833136,3.89689154 1.90410927,3.45754241 L2.64067225,2.54796288 C2.99120621,2.11508949 3.62115835,2.04419004 4.04859841,2.39032418 L4.98900894,3.15185361 C5.41605112,3.49766555 5.48331724,4.12243899 5.12753933,4.56178813 L4.39097635,5.47136766 C4.04044239,5.90424105 3.41049025,5.9751405 2.98305019,5.62900636 L2.04263966,4.86747693 Z" id="Rectangle-41" fill="#FFFFFF"></path>
            </g>
        </g>
    </g>
</svg>